<?xml version="1.0" standalone="no"?><!DOCTYPE svg PUBLIC "-//W3C//DTD SVG 1.1//EN" "http://www.w3.org/Graphics/SVG/1.1/DTD/svg11.dtd"><svg width="200" height="200" viewBox="0 0 200 200" version="1.1" xmlns="http://www.w3.org/2000/svg" xmlns:xlink="http://www.w3.org/1999/xlink"><defs><style type="text/css"><![CDATA[
@font-face { font-family: ifont; src: url("//at.alicdn.com/t/font_1442373896_4754455.eot?#iefix") format("embedded-opentype"), url("//at.alicdn.com/t/font_1442373896_4754455.woff") format("woff"), url("//at.alicdn.com/t/font_1442373896_4754455.ttf") format("truetype"), url("//at.alicdn.com/t/font_1442373896_4754455.svg#ifont") format("svg"); }

]]></style></defs><g class="transform-group"><g transform="scale(0.1953125, 0.1953125)"><path d="M62 961.993h409.089v-409.094h-409.089v409.094zM143.811 634.724h245.457v244.822h-245.457v-244.822zM225.635 716.535h81.817v81.827h-81.817v-81.827zM716.53 880.182h81.837v81.818h-81.836v-81.818zM880.166 880.182h81.834v81.818h-81.834v-81.818zM880.175 634.724h-81.811v-81.825h-245.465v409.094h81.825v-245.457h81.805v81.827h245.465v-245.465h-81.818zM62 471.099h409.089v-409.099h-409.089v409.099zM143.811 143.811h245.457v245.457h-245.457v-245.457zM225.635 225.635h81.817v81.823h-81.817v-81.823zM552.899 62v409.099h409.101v-409.099h-409.101zM880.175 389.269h-245.451v-245.457h245.451v245.457zM716.53 225.635h81.837v81.823h-81.836v-81.823z" fill="#272636"></path></g></g></svg>